<svg xmlns="http://www.w3.org/2000/svg" xmlns:xlink="http://www.w3.org/1999/xlink" width="400" zoomAndPan="magnify" viewBox="0 0 300 149.999998" height="200" preserveAspectRatio="xMidYMid meet" version="1.0"><defs><g/></defs><g fill="#000000" fill-opacity="1"><g transform="translate(35.982003, 100.419132)"><g><path d="M 39.921875 -1.734375 C 40.742188 -1.734375 41.414062 -2.078125 41.9375 -2.765625 C 42.46875 -3.453125 42.734375 -4.273438 42.734375 -5.234375 C 42.734375 -6.203125 42.648438 -7.101562 42.484375 -7.9375 L 44.0625 -8.1875 C 44.28125 -7.351562 44.390625 -6.441406 44.390625 -5.453125 C 44.390625 -3.472656 43.796875 -1.90625 42.609375 -0.75 C 41.421875 0.40625 39.890625 0.984375 38.015625 0.984375 C 33.335938 0.984375 31 -1.847656 31 -7.515625 C 31 -13.191406 30.28125 -17.363281 28.84375 -20.03125 C 27.414062 -22.707031 24.492188 -24.046875 20.078125 -24.046875 L 14.71875 -24.046875 L 14.71875 -2.640625 C 14.71875 -1.867188 15.101562 -1.484375 15.875 -1.484375 L 21.40625 -1.484375 L 21.40625 0 L 2.890625 0 L 2.890625 -1.484375 L 6.78125 -1.484375 C 7.550781 -1.484375 7.9375 -1.867188 7.9375 -2.640625 L 7.9375 -49.59375 C 7.9375 -50.25 7.550781 -50.578125 6.78125 -50.578125 L 2.890625 -50.578125 L 2.890625 -52.078125 L 23.46875 -52.078125 C 28.101562 -52.078125 32.046875 -50.804688 35.296875 -48.265625 C 38.546875 -45.734375 40.171875 -42.347656 40.171875 -38.109375 C 40.171875 -34.691406 39.109375 -31.8125 36.984375 -29.46875 C 34.867188 -27.125 32.070312 -25.507812 28.59375 -24.625 C 32.507812 -23.300781 34.988281 -20.929688 36.03125 -17.515625 C 36.863281 -14.710938 37.28125 -11.378906 37.28125 -7.515625 C 37.28125 -3.660156 38.160156 -1.734375 39.921875 -1.734375 Z M 23.0625 -49.765625 L 14.71875 -49.765625 L 14.71875 -26.453125 L 23.0625 -26.453125 C 26.363281 -26.453125 28.9375 -27.609375 30.78125 -29.921875 C 32.632812 -32.234375 33.5625 -34.957031 33.5625 -38.09375 C 33.5625 -41.238281 32.632812 -43.96875 30.78125 -46.28125 C 28.9375 -48.601562 26.363281 -49.765625 23.0625 -49.765625 Z M 23.0625 -49.765625 "/></g></g></g><g fill="#000000" fill-opacity="1"><g transform="translate(79.787065, 100.419132)"><g><path d="M 20 -36.703125 C 23.800781 -36.703125 26.800781 -35.429688 29 -32.890625 C 31.207031 -30.359375 32.3125 -26.640625 32.3125 -21.734375 C 32.3125 -20.742188 32.257812 -19.644531 32.15625 -18.4375 L 9.59375 -18.4375 L 9.59375 -17.859375 C 9.59375 -12.617188 10.539062 -8.492188 12.4375 -5.484375 C 14.34375 -2.484375 16.796875 -0.984375 19.796875 -0.984375 C 22.796875 -0.984375 25.257812 -1.753906 27.1875 -3.296875 C 29.125 -4.847656 30.445312 -7.054688 31.15625 -9.921875 L 32.734375 -9.59375 C 32.066406 -6.226562 30.546875 -3.625 28.171875 -1.78125 C 25.804688 0.0625 23.082031 0.984375 20 0.984375 C 15.207031 0.984375 11.226562 -0.691406 8.0625 -4.046875 C 4.894531 -7.410156 3.3125 -12 3.3125 -17.8125 C 3.3125 -23.625 4.90625 -28.222656 8.09375 -31.609375 C 11.289062 -35.003906 15.257812 -36.703125 20 -36.703125 Z M 26.609375 -24.546875 C 26.609375 -31.328125 24.078125 -34.71875 19.015625 -34.71875 C 16.472656 -34.71875 14.304688 -33.335938 12.515625 -30.578125 C 10.734375 -27.828125 9.785156 -24.328125 9.671875 -20.078125 L 26.28125 -20.078125 C 26.5 -21.953125 26.609375 -23.441406 26.609375 -24.546875 Z M 26.609375 -24.546875 "/></g></g></g><g fill="#000000" fill-opacity="1"><g transform="translate(116.236178, 100.419132)"><g><path d="M 23.640625 -19.265625 L 23.71875 -22.15625 L 23.71875 -25.046875 C 23.71875 -31.492188 21.625 -34.71875 17.4375 -34.71875 C 15.625 -34.71875 14.207031 -34.097656 13.1875 -32.859375 C 12.164062 -31.617188 11.65625 -30.171875 11.65625 -28.515625 C 11.65625 -26.859375 11.875 -25.425781 12.3125 -24.21875 C 11.375 -23.394531 10.078125 -22.984375 8.421875 -22.984375 C 6.773438 -22.984375 5.953125 -24.332031 5.953125 -27.03125 C 5.953125 -29.726562 7.007812 -32.015625 9.125 -33.890625 C 11.25 -35.765625 14.269531 -36.703125 18.1875 -36.703125 C 25.84375 -36.703125 29.671875 -32.179688 29.671875 -23.140625 L 29.671875 -6.203125 C 29.671875 -3.222656 30.5 -1.734375 32.15625 -1.734375 C 32.925781 -1.734375 33.597656 -2.09375 34.171875 -2.8125 C 34.753906 -3.53125 35.046875 -4.351562 35.046875 -5.28125 C 35.046875 -6.21875 34.960938 -7.101562 34.796875 -7.9375 L 36.375 -8.1875 C 36.59375 -7.351562 36.703125 -6.441406 36.703125 -5.453125 C 36.703125 -3.472656 36.109375 -1.90625 34.921875 -0.75 C 33.734375 0.40625 32.175781 0.984375 30.25 0.984375 C 28.320312 0.984375 26.75 0.203125 25.53125 -1.359375 C 24.320312 -2.929688 23.71875 -5.289062 23.71875 -8.4375 L 23.71875 -9.921875 C 22.78125 -6.171875 21.289062 -3.414062 19.25 -1.65625 C 17.21875 0.101562 14.863281 0.984375 12.1875 0.984375 C 9.519531 0.984375 7.375 0.144531 5.75 -1.53125 C 4.125 -3.207031 3.3125 -5.4375 3.3125 -8.21875 C 3.3125 -11 4.601562 -13.476562 7.1875 -15.65625 C 9.78125 -17.832031 13.5 -18.921875 18.34375 -18.921875 C 19.394531 -18.921875 21.160156 -18.785156 23.640625 -18.515625 Z M 14.046875 -2.15625 C 16.359375 -2.15625 18.4375 -3.460938 20.28125 -6.078125 C 22.132812 -8.691406 23.226562 -12.367188 23.5625 -17.109375 C 23.007812 -17.160156 22.238281 -17.1875 21.25 -17.1875 C 16.832031 -17.1875 13.671875 -16.265625 11.765625 -14.421875 C 9.867188 -12.578125 8.921875 -10.441406 8.921875 -8.015625 C 8.921875 -6.421875 9.390625 -5.046875 10.328125 -3.890625 C 11.265625 -2.734375 12.503906 -2.15625 14.046875 -2.15625 Z M 14.046875 -2.15625 "/></g></g></g><g fill="#000000" fill-opacity="1"><g transform="translate(154.173009, 100.419132)"><g><path d="M 27.859375 0.5 L 27.859375 -6.609375 C 24.765625 -1.546875 21.109375 0.984375 16.890625 0.984375 C 12.679688 0.984375 9.363281 -0.691406 6.9375 -4.046875 C 4.519531 -7.410156 3.3125 -11.984375 3.3125 -17.765625 C 3.3125 -23.554688 4.851562 -28.160156 7.9375 -31.578125 C 11.019531 -34.992188 14.90625 -36.703125 19.59375 -36.703125 C 22.625 -36.703125 25.378906 -35.957031 27.859375 -34.46875 L 27.859375 -50.921875 C 27.859375 -51.691406 27.472656 -52.078125 26.703125 -52.078125 L 22.8125 -52.078125 L 22.8125 -53.5625 L 26.859375 -53.5625 C 30.171875 -53.5625 32.488281 -53.726562 33.8125 -54.0625 L 33.8125 -2.640625 C 33.8125 -1.867188 34.195312 -1.484375 34.96875 -1.484375 L 38.84375 -1.484375 L 38.84375 0 L 34.796875 0 C 31.492188 0 29.179688 0.164062 27.859375 0.5 Z M 19.796875 -34.21875 C 16.960938 -34.21875 14.550781 -32.796875 12.5625 -29.953125 C 10.582031 -27.117188 9.59375 -23.164062 9.59375 -18.09375 C 9.59375 -13.03125 10.40625 -9.109375 12.03125 -6.328125 C 13.65625 -3.546875 15.707031 -2.15625 18.1875 -2.15625 C 21.769531 -2.15625 24.992188 -4.660156 27.859375 -9.671875 L 27.859375 -31.90625 C 25.316406 -33.445312 22.628906 -34.21875 19.796875 -34.21875 Z M 19.796875 -34.21875 "/></g></g></g><g fill="#000000" fill-opacity="1"><g transform="translate(195.498534, 100.419132)"><g><path d="M 20 -36.703125 C 23.800781 -36.703125 26.800781 -35.429688 29 -32.890625 C 31.207031 -30.359375 32.3125 -26.640625 32.3125 -21.734375 C 32.3125 -20.742188 32.257812 -19.644531 32.15625 -18.4375 L 9.59375 -18.4375 L 9.59375 -17.859375 C 9.59375 -12.617188 10.539062 -8.492188 12.4375 -5.484375 C 14.34375 -2.484375 16.796875 -0.984375 19.796875 -0.984375 C 22.796875 -0.984375 25.257812 -1.753906 27.1875 -3.296875 C 29.125 -4.847656 30.445312 -7.054688 31.15625 -9.921875 L 32.734375 -9.59375 C 32.066406 -6.226562 30.546875 -3.625 28.171875 -1.78125 C 25.804688 0.0625 23.082031 0.984375 20 0.984375 C 15.207031 0.984375 11.226562 -0.691406 8.0625 -4.046875 C 4.894531 -7.410156 3.3125 -12 3.3125 -17.8125 C 3.3125 -23.625 4.90625 -28.222656 8.09375 -31.609375 C 11.289062 -35.003906 15.257812 -36.703125 20 -36.703125 Z M 26.609375 -24.546875 C 26.609375 -31.328125 24.078125 -34.71875 19.015625 -34.71875 C 16.472656 -34.71875 14.304688 -33.335938 12.515625 -30.578125 C 10.734375 -27.828125 9.785156 -24.328125 9.671875 -20.078125 L 26.28125 -20.078125 C 26.5 -21.953125 26.609375 -23.441406 26.609375 -24.546875 Z M 26.609375 -24.546875 "/></g></g></g><g fill="#000000" fill-opacity="1"><g transform="translate(231.947646, 100.419132)"><g><path d="M 24.375 -36.703125 C 26.53125 -36.703125 28.28125 -35.789062 29.625 -33.96875 C 30.976562 -32.15625 31.65625 -29.867188 31.65625 -27.109375 C 31.65625 -24.359375 30.523438 -22.984375 28.265625 -22.984375 C 26.941406 -22.984375 25.867188 -23.394531 25.046875 -24.21875 C 25.765625 -25.8125 26.125 -27.4375 26.125 -29.09375 C 26.125 -32.007812 24.910156 -33.46875 22.484375 -33.46875 C 20.441406 -33.46875 18.632812 -31.773438 17.0625 -28.390625 C 15.5 -25.003906 14.71875 -20.085938 14.71875 -13.640625 L 14.71875 -2.640625 C 14.71875 -1.867188 15.101562 -1.484375 15.875 -1.484375 L 21.40625 -1.484375 L 21.40625 0 L 3.71875 0 L 3.71875 -1.484375 L 7.609375 -1.484375 C 8.378906 -1.484375 8.765625 -1.867188 8.765625 -2.640625 L 8.765625 -33.0625 C 8.765625 -33.832031 8.378906 -34.21875 7.609375 -34.21875 L 3.71875 -34.21875 L 3.71875 -35.703125 L 7.765625 -35.703125 C 11.078125 -35.703125 13.394531 -35.867188 14.71875 -36.203125 L 14.71875 -25.625 C 15.59375 -29.425781 16.882812 -32.222656 18.59375 -34.015625 C 20.300781 -35.804688 22.226562 -36.703125 24.375 -36.703125 Z M 24.375 -36.703125 "/></g></g></g></svg>